<?xml version="1.0" standalone="no"?>
<!DOCTYPE svg PUBLIC "-//W3C//DTD SVG 20010904//EN"
 "http://www.w3.org/TR/2001/REC-SVG-20010904/DTD/svg10.dtd">
<svg version="1.0" xmlns="http://www.w3.org/2000/svg"
 width="512.000000pt" height="512.000000pt" viewBox="0 0 512.000000 512.000000"
 preserveAspectRatio="xMidYMid meet">

<g transform="translate(0.000000,512.000000) scale(0.100000,-0.100000)"
fill="#000000" stroke="none">
<path d="M2358 4959 c-554 -46 -1092 -295 -1489 -689 -63 -63 -144 -150 -178
-193 -208 -258 -380 -598 -460 -910 -146 -568 -88 -1139 168 -1662 236 -481
602 -852 1079 -1093 451 -228 934 -306 1441 -232 359 52 713 193 1016 405 341
239 600 542 786 920 256 523 314 1094 168 1662 -80 312 -253 654 -460 910 -84
104 -254 273 -358 357 -484 387 -1099 576 -1713 525z m440 -120 c417 -45 820
-206 1157 -463 104 -79 300 -269 382 -371 564 -698 672 -1650 278 -2450 -314
-639 -907 -1099 -1595 -1238 -922 -187 -1846 197 -2375 988 -140 210 -270 517
-324 768 -142 657 12 1343 423 1882 79 104 269 300 371 382 338 272 769 454
1190 501 114 13 379 14 493 1z"/>
<path d="M2185 4394 c-97 -22 -197 -65 -291 -126 -102 -66 -279 -245 -367
-369 -65 -93 -70 -97 -130 -119 -85 -31 -267 -122 -341 -172 -33 -23 -100 -80
-147 -128 -71 -71 -94 -103 -133 -181 -62 -126 -79 -211 -73 -359 9 -193 79
-393 220 -628 l66 -110 -11 -64 c-7 -34 -12 -142 -11 -238 0 -156 3 -186 26
-273 76 -284 248 -469 517 -555 139 -45 350 -62 524 -43 l99 10 56 -48 c141
-121 314 -220 446 -256 97 -26 267 -31 361 -10 255 56 477 246 654 558 23 42
41 62 63 69 16 6 75 33 130 60 639 312 746 794 322 1438 l-63 95 0 200 c0 140
-5 227 -16 290 -45 250 -149 430 -314 538 -148 98 -286 135 -537 144 l-170 6
-110 73 c-130 86 -246 143 -370 179 -115 35 -293 43 -400 19z m354 -126 c42
-11 109 -35 151 -54 92 -43 241 -135 237 -148 -2 -5 -198 -123 -437 -262 -239
-139 -443 -263 -452 -275 -17 -20 -18 -62 -18 -575 0 -305 -3 -554 -6 -554 -5
0 -131 72 -386 221 l-68 40 0 540 0 541 50 71 c158 229 351 391 535 451 121
39 256 41 394 4z m899 -284 c328 -68 501 -268 542 -629 13 -115 13 -315 0
-315 -5 0 -192 110 -416 245 -223 135 -411 245 -418 245 -6 0 -233 -128 -505
-285 -271 -157 -495 -285 -497 -285 -2 0 -4 114 -4 253 l0 252 458 267 c251
147 466 269 477 272 37 10 284 -4 363 -20z m-1998 -833 c0 -286 4 -530 9 -543
7 -18 138 -98 500 -307 271 -156 490 -288 489 -293 -2 -4 -104 -66 -227 -137
l-224 -129 -81 48 c-45 26 -243 140 -441 254 -198 114 -370 219 -382 234 -39
46 -142 234 -182 333 -58 143 -82 251 -82 369 0 243 116 422 372 573 69 41
223 115 242 116 4 1 7 -233 7 -518z m2140 -11 l421 -255 63 -95 c118 -178 188
-327 220 -468 20 -88 21 -239 1 -311 -48 -182 -204 -344 -455 -475 -59 -31
-113 -56 -119 -56 -8 0 -11 135 -12 488 -1 268 -4 498 -8 512 -9 34 -518 376
-797 536 -112 64 -202 120 -199 123 17 16 442 259 452 258 6 -1 201 -117 433
-257z m-799 -194 l214 -124 2 -248 3 -249 -215 -123 -216 -124 -187 108 c-103
59 -199 115 -215 123 l-27 16 2 250 3 249 210 122 c116 67 210 123 211 123 1
1 97 -55 215 -123z m571 -358 l227 -153 1 -518 0 -518 -41 -72 c-114 -202
-265 -360 -414 -435 -239 -119 -516 -76 -779 123 -39 29 -79 62 -89 73 -18 20
-17 21 50 60 37 22 230 133 428 247 198 114 363 213 367 219 4 6 8 262 8 569
0 306 3 557 8 557 4 0 109 -68 234 -152z m-352 -652 l0 -254 -440 -253 c-242
-140 -440 -259 -440 -265 0 -17 -164 -28 -319 -21 -150 6 -252 30 -366 86 -99
50 -171 112 -228 199 -97 147 -132 298 -125 535 3 81 7 150 11 153 3 3 202
-108 441 -246 348 -201 442 -251 464 -248 15 3 245 131 512 286 267 155 486
282 488 282 1 0 2 -114 2 -254z"/>
</g>
</svg>
